<svg width="56" height="56" viewBox="0 0 56 56" fill="none" xmlns="http://www.w3.org/2000/svg">
<path d="M28.0003 53.0834C14.1637 53.0834 2.91699 41.8367 2.91699 28.0001C2.91699 14.1634 14.1637 2.91675 28.0003 2.91675C41.837 2.91675 53.0837 14.1634 53.0837 28.0001C53.0837 41.8367 41.837 53.0834 28.0003 53.0834ZM28.0003 6.41675C16.1003 6.41675 6.41699 16.1001 6.41699 28.0001C6.41699 39.9001 16.1003 49.5834 28.0003 49.5834C39.9003 49.5834 49.5837 39.9001 49.5837 28.0001C49.5837 16.1001 39.9003 6.41675 28.0003 6.41675Z" fill="#838384"/>
<path d="M21.3965 36.3534C20.9532 36.3534 20.5098 36.1901 20.1598 35.8401C19.4832 35.1634 19.4832 34.0434 20.1598 33.3668L33.3665 20.1601C34.0432 19.4834 35.1632 19.4834 35.8398 20.1601C36.5165 20.8368 36.5165 21.9568 35.8398 22.6334L22.6332 35.8401C22.3065 36.1901 21.8398 36.3534 21.3965 36.3534Z" fill="#838384"/>
<path d="M34.6032 36.3534C34.1598 36.3534 33.7165 36.1901 33.3665 35.8401L20.1598 22.6334C19.4832 21.9568 19.4832 20.8368 20.1598 20.1601C20.8365 19.4834 21.9565 19.4834 22.6332 20.1601L35.8398 33.3668C36.5165 34.0434 36.5165 35.1634 35.8398 35.8401C35.4898 36.1901 35.0465 36.3534 34.6032 36.3534Z" fill="#838384"/>
</svg>
