<svg width="77" height="138" viewBox="0 0 77 138" fill="none" xmlns="http://www.w3.org/2000/svg">
<circle cx="3" cy="3" r="3" fill="#12B97D"/>
<circle cx="14" cy="3" r="3" fill="#12B97D"/>
<circle cx="25" cy="3" r="3" fill="#12B97D"/>
<circle cx="36" cy="3" r="3" fill="#12B97D"/>
<circle cx="47" cy="3" r="3" fill="#12B97D"/>
<circle cx="58" cy="3" r="3" fill="#12B97D"/>
<circle cx="69" cy="3" r="3" fill="#12B97D"/>
<circle cx="3" cy="14" r="3" fill="#12B97D"/>
<circle cx="14" cy="14" r="3" fill="#12B97D"/>
<circle cx="25" cy="14" r="3" fill="#12B97D"/>
<circle cx="36" cy="14" r="3" fill="#12B97D"/>
<circle cx="47" cy="14" r="3" fill="#12B97D"/>
<circle cx="58" cy="14" r="3" fill="#12B97D"/>
<circle cx="69" cy="14" r="3" fill="#12B97D"/>
<circle cx="3" cy="25" r="3" fill="#12B97D"/>
<circle cx="14" cy="25" r="3" fill="#12B97D"/>
<circle cx="25" cy="25" r="3" fill="#12B97D"/>
<circle cx="36" cy="25" r="3" fill="#12B97D"/>
<circle cx="47" cy="25" r="3" fill="#12B97D"/>
<circle cx="58" cy="25" r="3" fill="#12B97D"/>
<circle cx="69" cy="25" r="3" fill="#12B97D"/>
<circle cx="3" cy="36" r="3" fill="#12B97D"/>
<circle cx="14" cy="36" r="3" fill="#12B97D"/>
<circle cx="25" cy="36" r="3" fill="#12B97D"/>
<circle cx="36" cy="36" r="3" fill="#12B97D"/>
<circle cx="47" cy="36" r="3" fill="#12B97D"/>
<circle cx="58" cy="36" r="3" fill="#12B97D"/>
<circle cx="69" cy="36" r="3" fill="#12B97D"/>
<circle cx="3" cy="47" r="3" fill="#12B97D"/>
<circle cx="14" cy="47" r="3" fill="#12B97D"/>
<circle cx="25" cy="47" r="3" fill="#12B97D"/>
<circle cx="36" cy="47" r="3" fill="#12B97D"/>
<circle cx="47" cy="47" r="3" fill="#12B97D"/>
<circle cx="58" cy="47" r="3" fill="#12B97D"/>
<circle cx="69" cy="47" r="3" fill="#12B97D"/>
<circle cx="3" cy="58" r="3" fill="#12B97D"/>
<circle cx="14" cy="58" r="3" fill="#12B97D"/>
<circle cx="25" cy="58" r="3" fill="#12B97D"/>
<circle cx="36" cy="58" r="3" fill="#12B97D"/>
<circle cx="47" cy="58" r="3" fill="#12B97D"/>
<circle cx="58" cy="58" r="3" fill="#12B97D"/>
<circle cx="69" cy="58" r="3" fill="#12B97D"/>
<circle cx="3" cy="69" r="3" fill="#12B97D"/>
<circle cx="14" cy="69" r="3" fill="#12B97D"/>
<circle cx="25" cy="69" r="3" fill="#12B97D"/>
<circle cx="36" cy="69" r="3" fill="#12B97D"/>
<circle cx="47" cy="69" r="3" fill="#12B97D"/>
<circle cx="58" cy="69" r="3" fill="#12B97D"/>
<circle cx="69" cy="69" r="3" fill="#12B97D"/>
<circle cx="3" cy="80" r="3" fill="#12B97D"/>
<circle cx="14" cy="80" r="3" fill="#12B97D"/>
<circle cx="25" cy="80" r="3" fill="#12B97D"/>
<circle cx="36" cy="80" r="3" fill="#12B97D"/>
<circle cx="47" cy="80" r="3" fill="#12B97D"/>
<circle cx="58" cy="80" r="3" fill="#12B97D"/>
<circle cx="69" cy="80" r="3" fill="#12B97D"/>
<circle cx="3" cy="91" r="3" fill="#12B97D"/>
<circle cx="14" cy="91" r="3" fill="#12B97D"/>
<circle cx="25" cy="91" r="3" fill="#12B97D"/>
<circle cx="36" cy="91" r="3" fill="#12B97D"/>
<circle cx="47" cy="91" r="3" fill="#12B97D"/>
<circle cx="58" cy="91" r="3" fill="#12B97D"/>
<circle cx="69" cy="91" r="3" fill="#12B97D"/>
<circle cx="3" cy="102" r="3" fill="#12B97D"/>
<circle cx="14" cy="102" r="3" fill="#12B97D"/>
<circle cx="25" cy="102" r="3" fill="#12B97D"/>
<circle cx="36" cy="102" r="3" fill="#12B97D"/>
<circle cx="47" cy="102" r="3" fill="#12B97D"/>
<circle cx="58" cy="102" r="3" fill="#12B97D"/>
<circle cx="69" cy="102" r="3" fill="#12B97D"/>
<circle cx="3" cy="113" r="3" fill="#12B97D"/>
<circle cx="14" cy="113" r="3" fill="#12B97D"/>
<circle cx="25" cy="113" r="3" fill="#12B97D"/>
<circle cx="36" cy="113" r="3" fill="#12B97D"/>
<circle cx="47" cy="113" r="3" fill="#12B97D"/>
<circle cx="58" cy="113" r="3" fill="#12B97D"/>
<circle cx="69" cy="113" r="3" fill="#12B97D"/>
<circle cx="3" cy="124" r="3" fill="#12B97D"/>
<circle cx="14" cy="124" r="3" fill="#12B97D"/>
<circle cx="25" cy="124" r="3" fill="#12B97D"/>
<circle cx="36" cy="124" r="3" fill="#12B97D"/>
<circle cx="47" cy="124" r="3" fill="#12B97D"/>
<circle cx="58" cy="124" r="3" fill="#12B97D"/>
<circle cx="69" cy="124" r="3" fill="#12B97D"/>
<circle cx="3" cy="135" r="3" fill="#12B97D"/>
<circle cx="14" cy="135" r="3" fill="#12B97D"/>
<circle cx="25" cy="135" r="3" fill="#12B97D"/>
<circle cx="36" cy="135" r="3" fill="#12B97D"/>
<circle cx="47" cy="135" r="3" fill="#12B97D"/>
<circle cx="58" cy="135" r="3" fill="#12B97D"/>
<circle cx="69" cy="135" r="3" fill="#12B97D"/>
</svg>
