<svg width="48" height="60" viewBox="0 0 48 60" fill="none" xmlns="http://www.w3.org/2000/svg">
<path d="M37.9598 58.2283C37.9267 58.3209 37.8861 58.4106 37.8387 58.4967C37.5451 59.0424 37.0419 59.2454 36.5606 59.0872C34.3135 58.3461 31.9342 57.8572 30.2589 55.9374C29.3684 54.9181 27.8579 54.6507 26.5133 54.7576C25.7133 54.822 24.9155 54.8984 24.1483 55.1942C23.8983 55.2902 23.4258 55.0283 23.1562 54.8068C22.7618 54.4726 22.3355 54.178 21.8836 53.9271C21.83 53.8979 21.7838 53.8567 21.7486 53.8068C21.7134 53.7569 21.6901 53.6995 21.6806 53.6392C21.6711 53.5788 21.6756 53.5171 21.6938 53.4588C21.712 53.4005 21.7433 53.3471 21.7854 53.3028C22.8536 52.1542 24.192 51.291 25.6789 50.7917C27.1659 50.2924 28.7541 50.1729 30.299 50.4441C31.8439 50.7153 33.2964 51.3685 34.5244 52.3443C35.7524 53.3202 36.7169 54.5876 37.3301 56.0313C37.3486 56.0758 37.3756 56.1162 37.4097 56.1503C38.0526 56.8116 38.2054 57.5538 37.9598 58.2283Z" fill="#028855"/>
<path d="M38.6811 49.9719C38.4152 50.6514 37.9198 51.2163 37.2808 51.5686C37.2042 51.6137 37.1149 51.6322 37.0267 51.6214C36.9385 51.6105 36.8563 51.5709 36.793 51.5086C35.6014 50.3233 34.1647 49.4134 32.5838 48.8428C31.0029 48.2722 29.3163 48.0547 27.6424 48.2056C25.9685 48.3566 24.348 48.8723 22.8947 49.7165C21.4414 50.5607 20.1906 51.7129 19.2303 53.0922C19.1878 53.1535 19.129 53.2018 19.0605 53.2315C18.9921 53.2612 18.9167 53.2711 18.8428 53.2603C18.272 53.185 17.7089 53.0597 17.1599 52.8859C16.7321 52.7419 16.4658 52.0718 16.1602 51.6188C15.8088 51.0982 15.5545 50.5012 15.1539 50.0265C14.6716 49.4579 14.3398 48.8685 14.2252 48.2082C14.2148 48.1508 14.217 48.0919 14.2315 48.0354C14.246 47.9789 14.2725 47.9261 14.3092 47.8808C17.205 44.3497 21.2999 42.0089 25.8121 41.3055C30.3242 40.6021 34.9374 41.5853 38.7706 44.0675C38.8463 44.1174 38.9031 44.1911 38.9321 44.277C39.5553 46.1772 39.3741 48.0794 38.6811 49.9719Z" fill="#028855"/>
<path d="M20.0049 39.8012C20.1384 39.8636 20.2514 39.9626 20.3309 40.0868C20.4103 40.2109 20.4528 40.3551 20.4535 40.5025C20.4542 40.6499 20.413 40.7944 20.3347 40.9193C20.2565 41.0442 20.1443 41.1443 20.0114 41.208C17.8263 42.238 15.8403 43.6461 14.1452 45.3673C14.0959 45.4172 14.0343 45.4531 13.9666 45.4714C13.8989 45.4897 13.8275 45.4897 13.7598 45.4714C13.6921 45.453 13.6305 45.4171 13.5812 45.3672C13.5319 45.3172 13.4968 45.2551 13.4794 45.1872C13.319 44.5749 13.2841 43.8775 12.3357 43.9441C12.2265 43.9506 12.1174 43.9266 12.0148 43.9441C10.8383 44.0783 10.8284 44.0849 10.5883 42.9869C10.4192 42.1869 10.1343 41.3597 11.0162 40.7376C11.1253 40.6612 11.1886 40.3763 11.1395 40.2377C11.0151 39.8885 10.8907 39.5381 10.763 39.1911C10.7347 39.1158 10.73 39.0338 10.7495 38.9558C10.769 38.8778 10.8118 38.8076 10.8721 38.7545C12.065 37.7374 13.343 36.8246 14.692 36.026C14.8597 35.927 15.0585 35.8945 15.249 35.9349C15.4396 35.9753 15.6081 36.0857 15.7212 36.2443C16.8194 37.7787 18.2948 39.0037 20.0049 39.8012Z" fill="#028855"/>
<path d="M39.1802 38.6115C38.7546 39.1135 38.342 39.6341 38.1227 40.2486C38.0413 40.4665 37.9824 40.6921 37.947 40.922C37.9379 40.9833 37.9147 41.0416 37.879 41.0923C37.8433 41.143 37.7963 41.1846 37.7416 41.2138C37.687 41.243 37.6262 41.2589 37.5642 41.2604C37.5023 41.2618 37.4409 41.2487 37.3849 41.2221C35.7071 40.428 33.9283 39.868 32.0982 39.5577C31.9523 39.5326 31.8167 39.4663 31.7072 39.3667C31.5977 39.2671 31.519 39.1382 31.4802 38.9954C31.4415 38.8525 31.4443 38.7016 31.4885 38.5603C31.5326 38.419 31.6161 38.2933 31.7293 38.1978C33.1625 36.9735 34.2547 35.3993 34.8998 33.6282C34.9657 33.444 35.0985 33.2913 35.2717 33.2003C35.4449 33.1093 35.646 33.0868 35.8351 33.1371C37.1058 33.4799 38.35 33.9143 39.5579 34.4369C39.623 34.4653 39.6794 34.5107 39.721 34.5683C39.7627 34.6259 39.7881 34.6936 39.7947 34.7643C39.8463 35.2693 39.8907 35.7757 39.9278 36.2836C39.963 36.7017 39.9151 37.1227 39.7868 37.5223C39.6585 37.9218 39.4523 38.292 39.1802 38.6115Z" fill="#028855"/>
<path d="M9.55629 34.7906L13.2801 33.8498C13.3669 33.8274 13.4588 33.8368 13.5392 33.8764C13.6196 33.9159 13.6831 33.983 13.7183 34.0654C13.7534 34.1479 13.7578 34.2402 13.7307 34.3256C13.7036 34.411 13.6467 34.4838 13.5704 34.5309C12.5336 35.1779 11.5395 35.891 10.5942 36.6656C10.5506 36.701 10.4996 36.7261 10.445 36.739C10.3904 36.7519 10.3335 36.7523 10.2787 36.7401C10.2239 36.728 10.1726 36.7035 10.1286 36.6687C10.0845 36.6339 10.049 36.5895 10.0245 36.539C9.82565 36.1316 9.59693 35.7394 9.34019 35.3658C9.3057 35.3161 9.28378 35.2589 9.2763 35.1989C9.26883 35.1389 9.27603 35.0781 9.29729 35.0215C9.31854 34.9649 9.35322 34.9143 9.39833 34.8741C9.44345 34.8339 9.49765 34.8053 9.55629 34.7906Z" fill="#FFAB02"/>
<path d="M13.7367 30.8388C13.7546 31.0386 13.6948 31.2376 13.5698 31.3944C13.4448 31.5513 13.2642 31.6541 13.0655 31.6813L5.06234 32.7651C5.00583 32.7725 4.94837 32.767 4.89429 32.749C4.84021 32.731 4.79092 32.7009 4.75014 32.6611C4.70937 32.6213 4.67817 32.5727 4.6589 32.5191C4.63962 32.4654 4.63278 32.4081 4.63888 32.3514C4.74802 31.3506 5.55347 30.2669 5.65933 29.2726C5.65933 29.2344 5.66807 29.1973 5.67243 29.1635C5.78157 28.3297 6.13409 27.7349 7.04213 27.2961C7.17728 27.2272 7.3043 27.1433 7.42084 27.0462C7.46572 27.0089 7.51868 26.9826 7.57552 26.9693C7.63235 26.956 7.6915 26.9562 7.74826 26.9698L13.1321 28.2795C13.3107 28.3222 13.4683 28.4269 13.5768 28.5751C13.6854 28.7232 13.7378 28.905 13.7247 29.0882C13.7051 29.3556 13.6952 29.6262 13.6952 29.898C13.6963 30.2178 13.7105 30.5288 13.7367 30.8388Z" fill="#FFAB02"/>
<path d="M15.3886 24.0514C15.0599 24.5685 14.7754 25.1125 14.5384 25.6776C14.4621 25.8625 14.3175 26.011 14.1346 26.0923C13.9518 26.1736 13.7447 26.1814 13.5562 26.1141L9.56061 24.6615C9.51289 24.6443 9.46917 24.6175 9.4321 24.5829C9.39504 24.5482 9.36539 24.5064 9.34498 24.46C9.32457 24.4136 9.3138 24.3634 9.31335 24.3127C9.31289 24.262 9.32275 24.2117 9.34233 24.1649C9.4251 23.9592 9.52022 23.7588 9.62718 23.5646C9.98734 22.9382 9.77998 22.518 9.20154 22.2757C8.14071 21.8391 7.15519 21.0904 5.89136 21.4168C5.84879 21.4266 5.78222 21.3207 5.71892 21.2694C5.31277 20.852 4.81069 20.5403 4.25645 20.3614L4.03817 20.2948C3.70956 20.1815 3.37329 20.0918 3.03191 20.0263C1.53998 19.772 -0.00761156 18.9939 2.81703e-05 17.4758C2.81703e-05 17.3568 0.0425924 17.1647 0.121173 17.1309C1.03903 16.7282 0.994285 15.9096 0.949538 15.1391C0.914614 14.5039 1.05104 13.9495 1.51815 13.5489C1.7528 13.3438 2.15552 13.1702 2.42619 13.2281C2.62591 13.2717 2.84201 13.7061 2.87148 13.992C2.92605 14.5377 2.83219 15.1085 2.84637 15.6662C2.86165 16.3429 3.21527 16.5175 3.86683 16.3647C4.25973 16.2741 4.69519 16.3898 5.10665 16.3484C5.66612 16.2957 6.20997 16.1344 6.70772 15.8736C6.77509 15.8379 6.85166 15.8235 6.92741 15.832C7.00316 15.8406 7.07455 15.8718 7.13227 15.9216L15.2478 23.0549C15.3855 23.1775 15.4752 23.3449 15.501 23.5273C15.5268 23.7098 15.487 23.8955 15.3886 24.0514Z" fill="#FFAB02"/>
<path d="M19.3361 20.333C18.7755 20.6431 18.2434 21.0021 17.746 21.4058C17.5917 21.5323 17.3947 21.5947 17.1958 21.5803C16.9968 21.5659 16.8109 21.4757 16.6764 21.3283L9.63695 13.5991C9.60249 13.5612 9.57614 13.5167 9.55949 13.4682C9.54285 13.4198 9.53626 13.3684 9.54015 13.3173C9.54403 13.2663 9.55829 13.2165 9.58207 13.1711C9.60585 13.1257 9.63863 13.0857 9.67842 13.0534C9.73845 13.0043 9.80175 12.9552 9.86396 12.9083C10.3758 12.5154 10.8015 12.0352 11.2435 11.5648C11.3461 11.4556 11.5709 11.4425 11.6451 11.3268C12.0457 10.6818 12.6732 10.636 13.3324 10.6054C13.9578 10.5771 14.5995 10.4963 14.8342 9.7727C14.9222 9.51314 14.9403 9.23494 14.8865 8.96617C14.8852 8.95805 14.8834 8.95003 14.8811 8.94216C14.7719 8.48923 15.4268 8.28732 15.5981 8.72388L19.6843 19.3715C19.7522 19.5468 19.7543 19.7407 19.6903 19.9175C19.6263 20.0942 19.5005 20.2418 19.3361 20.333Z" fill="#FFAB02"/>
<path d="M27.27 2.42439L25.4147 18.2801C25.3921 18.4712 25.2997 18.6472 25.1553 18.7743C25.0108 18.9014 24.8245 18.9706 24.6322 18.9688H24.6256C23.9746 18.9684 23.3248 19.0261 22.684 19.1412C22.4911 19.1762 22.2921 19.1371 22.1268 19.0317C21.9614 18.9262 21.842 18.7623 21.7924 18.5726L18.4571 5.7957C18.4437 5.7427 18.4417 5.68745 18.4513 5.63364C18.4609 5.57982 18.4818 5.52866 18.5127 5.48356C18.9231 4.88984 19.5103 4.59407 20.128 4.35506C21.2008 3.93924 21.8557 3.01265 22.2682 1.93872C22.349 1.72918 22.6338 1.47488 22.8434 1.45851C23.7667 1.38211 24.7075 1.49671 25.5293 0.872434C25.6275 0.797128 25.9866 1.06561 26.255 1.21513C26.298 1.2396 26.3386 1.26811 26.3762 1.30026L27.1675 2.12098C27.2061 2.16073 27.2353 2.2086 27.2531 2.26109C27.2708 2.31358 27.2766 2.36937 27.27 2.42439Z" fill="#FFAB02"/>
<path d="M36.376 12.2196L30.9714 20.1136C30.8614 20.274 30.6954 20.3875 30.5059 20.4318C30.3165 20.476 30.1174 20.4478 29.9477 20.3526C29.3761 20.0327 28.7766 19.7653 28.1567 19.5537C27.9739 19.4916 27.8206 19.3637 27.7268 19.1948C27.633 19.026 27.6054 18.8283 27.6492 18.6402L30.0841 8.14325L30.7815 8.04175C31.1089 8.62346 31.5575 9.13314 32.1861 9.26301C32.2331 9.27175 32.2811 9.28266 32.3269 9.29357C33.9346 9.66574 35.0554 10.8717 36.2745 11.6946C36.3158 11.7223 36.3512 11.7579 36.3787 11.7993C36.4062 11.8407 36.4252 11.8872 36.4346 11.936C36.444 11.9848 36.4437 12.035 36.4337 12.0836C36.4236 12.1323 36.404 12.1785 36.376 12.2196Z" fill="#FFAB02"/>
<path d="M38.8875 29.8968L35.5522 29.9056V29.8968C35.5523 29.0396 35.4516 28.1854 35.2521 27.3517C35.2082 27.1691 35.2317 26.9768 35.3183 26.8101C35.4049 26.6435 35.5488 26.5137 35.7235 26.4448L37.6629 25.6808C37.7085 25.6622 37.7572 25.6529 37.8064 25.6533C37.8556 25.6538 37.9042 25.664 37.9494 25.6834C37.9946 25.7028 38.0355 25.731 38.0697 25.7663C38.1039 25.8017 38.1307 25.8434 38.1486 25.8892C38.1584 25.9143 38.1683 25.9405 38.1792 25.9656C38.3291 26.3447 38.4775 26.7234 38.6245 27.1018C38.7434 27.4084 39.0228 27.6475 39.061 27.9749C39.1221 28.4736 39.1865 28.9724 39.2509 29.4723C39.2578 29.5245 39.2536 29.5777 39.2387 29.6282C39.2237 29.6788 39.1982 29.7256 39.1639 29.7656C39.1296 29.8057 39.0873 29.8381 39.0397 29.8607C38.992 29.8833 38.9402 29.8956 38.8875 29.8968Z" fill="#FFAB02"/>
<path d="M47.0743 16.8939C46.044 17.4396 45.328 18.2189 44.7605 19.0953C44.7258 19.1482 44.6786 19.1917 44.623 19.2219L34.9096 24.3678C34.7354 24.4596 34.5328 24.4821 34.3427 24.4307C34.1526 24.3792 33.989 24.2577 33.8848 24.0906C33.545 23.5484 33.1583 23.0371 32.729 22.5626C32.6015 22.4218 32.5298 22.2393 32.5274 22.0494C32.525 21.8595 32.592 21.6752 32.7159 21.5312L40.8817 12.0547C40.9193 12.0121 40.966 11.9784 41.0183 11.9561C41.0706 11.9339 41.1272 11.9235 41.184 11.9259C42.1488 11.9554 43.0798 11.7076 44.0391 11.6203C45.9239 11.4501 46.6901 12.3297 46.6377 14.2397C46.6257 14.6686 46.5777 15.0975 46.5624 15.5286C46.5504 15.8746 46.4358 16.2926 46.9717 16.3362C47.0175 16.3362 47.059 16.3559 47.0688 16.3995C47.0874 16.4814 47.1037 16.6287 47.1212 16.7499C47.1283 16.7758 47.1277 16.8033 47.1194 16.8289C47.111 16.8546 47.0953 16.8771 47.0743 16.8939Z" fill="#FFAB02"/>
<path d="M24.5463 29.0881C24.3823 29.0878 24.222 29.1363 24.0856 29.2272C23.9492 29.3182 23.8429 29.4475 23.7801 29.5989C23.7172 29.7503 23.7007 29.917 23.7327 30.0778C23.7646 30.2386 23.8435 30.3863 23.9594 30.5022C24.0753 30.6181 24.223 30.697 24.3838 30.7289C24.5446 30.7609 24.7113 30.7444 24.8627 30.6815C25.0141 30.6187 25.1434 30.5124 25.2344 30.376C25.3253 30.2396 25.3738 30.0793 25.3735 29.9153C25.3735 29.6959 25.2864 29.4855 25.1312 29.3304C24.9761 29.1752 24.7657 29.0881 24.5463 29.0881ZM24.5463 30.5222C24.4262 30.5222 24.3089 30.4866 24.2091 30.4199C24.1093 30.3532 24.0316 30.2584 23.9856 30.1476C23.9397 30.0367 23.9277 29.9147 23.9511 29.797C23.9745 29.6792 24.0323 29.5711 24.1172 29.4863C24.202 29.4014 24.3102 29.3436 24.4279 29.3202C24.5456 29.2968 24.6676 29.3088 24.7785 29.3547C24.8894 29.4006 24.9841 29.4784 25.0508 29.5782C25.1175 29.678 25.1531 29.7953 25.1531 29.9153C25.1532 29.9951 25.1376 30.074 25.1072 30.1477C25.0767 30.2214 25.032 30.2884 24.9757 30.3447C24.9193 30.4011 24.8523 30.4458 24.7787 30.4763C24.705 30.5067 24.626 30.5223 24.5463 30.5222ZM24.5463 29.6392C24.4917 29.6392 24.4383 29.6554 24.3929 29.6857C24.3475 29.7161 24.3121 29.7592 24.2912 29.8097C24.2703 29.8601 24.2648 29.9156 24.2754 29.9692C24.2861 30.0228 24.3124 30.072 24.351 30.1106C24.3896 30.1492 24.4388 30.1755 24.4924 30.1862C24.546 30.1968 24.6015 30.1913 24.6519 30.1704C24.7024 30.1495 24.7455 30.1141 24.7758 30.0687C24.8062 30.0233 24.8224 29.9699 24.8224 29.9153C24.8224 29.8421 24.7933 29.7719 24.7415 29.7201C24.6897 29.6683 24.6195 29.6392 24.5463 29.6392ZM24.5463 29.0881C24.3823 29.0878 24.222 29.1363 24.0856 29.2272C23.9492 29.3182 23.8429 29.4475 23.7801 29.5989C23.7172 29.7503 23.7007 29.917 23.7327 30.0778C23.7646 30.2386 23.8435 30.3863 23.9594 30.5022C24.0753 30.6181 24.223 30.697 24.3838 30.7289C24.5446 30.7609 24.7113 30.7444 24.8627 30.6815C25.0141 30.6187 25.1434 30.5124 25.2344 30.376C25.3253 30.2396 25.3738 30.0793 25.3735 29.9153C25.3735 29.6959 25.2864 29.4855 25.1312 29.3304C24.9761 29.1752 24.7657 29.0881 24.5463 29.0881ZM24.5463 30.5222C24.4262 30.5222 24.3089 30.4866 24.2091 30.4199C24.1093 30.3532 24.0316 30.2584 23.9856 30.1476C23.9397 30.0367 23.9277 29.9147 23.9511 29.797C23.9745 29.6792 24.0323 29.5711 24.1172 29.4863C24.202 29.4014 24.3102 29.3436 24.4279 29.3202C24.5456 29.2968 24.6676 29.3088 24.7785 29.3547C24.8894 29.4006 24.9841 29.4784 25.0508 29.5782C25.1175 29.678 25.1531 29.7953 25.1531 29.9153C25.1532 29.9951 25.1376 30.074 25.1072 30.1477C25.0767 30.2214 25.032 30.2884 24.9757 30.3447C24.9193 30.4011 24.8523 30.4458 24.7787 30.4763C24.705 30.5067 24.626 30.5223 24.5463 30.5222ZM24.5463 29.6392C24.4917 29.6392 24.4383 29.6554 24.3929 29.6857C24.3475 29.7161 24.3121 29.7592 24.2912 29.8097C24.2703 29.8601 24.2648 29.9156 24.2754 29.9692C24.2861 30.0228 24.3124 30.072 24.351 30.1106C24.3896 30.1492 24.4388 30.1755 24.4924 30.1862C24.546 30.1968 24.6015 30.1913 24.6519 30.1704C24.7024 30.1495 24.7455 30.1141 24.7758 30.0687C24.8062 30.0233 24.8224 29.9699 24.8224 29.9153C24.8224 29.8421 24.7933 29.7719 24.7415 29.7201C24.6897 29.6683 24.6195 29.6392 24.5463 29.6392ZM24.4906 24.9659C24.4262 24.9801 24.3618 24.9975 24.2974 25.015C24.3618 25.0412 24.4273 25.0685 24.4906 25.0968C24.555 25.0674 24.6194 25.0412 24.6827 25.015C24.6194 24.9975 24.5561 24.979 24.4906 24.9659ZM24.5463 29.0881C24.3823 29.0878 24.222 29.1363 24.0856 29.2272C23.9492 29.3182 23.8429 29.4475 23.7801 29.5989C23.7172 29.7503 23.7007 29.917 23.7327 30.0778C23.7646 30.2386 23.8435 30.3863 23.9594 30.5022C24.0753 30.6181 24.223 30.697 24.3838 30.7289C24.5446 30.7609 24.7113 30.7444 24.8627 30.6815C25.0141 30.6187 25.1434 30.5124 25.2344 30.376C25.3253 30.2396 25.3738 30.0793 25.3735 29.9153C25.3735 29.6959 25.2864 29.4855 25.1312 29.3304C24.9761 29.1752 24.7657 29.0881 24.5463 29.0881ZM24.5463 30.5222C24.4262 30.5222 24.3089 30.4866 24.2091 30.4199C24.1093 30.3532 24.0316 30.2584 23.9856 30.1476C23.9397 30.0367 23.9277 29.9147 23.9511 29.797C23.9745 29.6792 24.0323 29.5711 24.1172 29.4863C24.202 29.4014 24.3102 29.3436 24.4279 29.3202C24.5456 29.2968 24.6676 29.3088 24.7785 29.3547C24.8894 29.4006 24.9841 29.4784 25.0508 29.5782C25.1175 29.678 25.1531 29.7953 25.1531 29.9153C25.1532 29.9951 25.1376 30.074 25.1072 30.1477C25.0767 30.2214 25.032 30.2884 24.9757 30.3447C24.9193 30.4011 24.8523 30.4458 24.7787 30.4763C24.705 30.5067 24.626 30.5223 24.5463 30.5222ZM24.5463 29.6392C24.4917 29.6392 24.4383 29.6554 24.3929 29.6857C24.3475 29.7161 24.3121 29.7592 24.2912 29.8097C24.2703 29.8601 24.2648 29.9156 24.2754 29.9692C24.2861 30.0228 24.3124 30.072 24.351 30.1106C24.3896 30.1492 24.4388 30.1755 24.4924 30.1862C24.546 30.1968 24.6015 30.1913 24.6519 30.1704C24.7024 30.1495 24.7455 30.1141 24.7758 30.0687C24.8062 30.0233 24.8224 29.9699 24.8224 29.9153C24.8224 29.8421 24.7933 29.7719 24.7415 29.7201C24.6897 29.6683 24.6195 29.6392 24.5463 29.6392ZM24.4906 24.9659C24.4262 24.9801 24.3618 24.9975 24.2974 25.015C24.3618 25.0412 24.4273 25.0685 24.4906 25.0968C24.555 25.0674 24.6194 25.0412 24.6827 25.015C24.6194 24.9975 24.5561 24.979 24.4906 24.9659ZM24.5463 29.0881C24.3823 29.0878 24.222 29.1363 24.0856 29.2272C23.9492 29.3182 23.8429 29.4475 23.7801 29.5989C23.7172 29.7503 23.7007 29.917 23.7327 30.0778C23.7646 30.2386 23.8435 30.3863 23.9594 30.5022C24.0753 30.6181 24.223 30.697 24.3838 30.7289C24.5446 30.7609 24.7113 30.7444 24.8627 30.6815C25.0141 30.6187 25.1434 30.5124 25.2344 30.376C25.3253 30.2396 25.3738 30.0793 25.3735 29.9153C25.3735 29.6959 25.2864 29.4855 25.1312 29.3304C24.9761 29.1752 24.7657 29.0881 24.5463 29.0881ZM24.5463 30.5222C24.4262 30.5222 24.3089 30.4866 24.2091 30.4199C24.1093 30.3532 24.0316 30.2584 23.9856 30.1476C23.9397 30.0367 23.9277 29.9147 23.9511 29.797C23.9745 29.6792 24.0323 29.5711 24.1172 29.4863C24.202 29.4014 24.3102 29.3436 24.4279 29.3202C24.5456 29.2968 24.6676 29.3088 24.7785 29.3547C24.8894 29.4006 24.9841 29.4784 25.0508 29.5782C25.1175 29.678 25.1531 29.7953 25.1531 29.9153C25.1532 29.9951 25.1376 30.074 25.1072 30.1477C25.0767 30.2214 25.032 30.2884 24.9757 30.3447C24.9193 30.4011 24.8523 30.4458 24.7787 30.4763C24.705 30.5067 24.626 30.5223 24.5463 30.5222ZM24.5463 29.6392C24.4917 29.6392 24.4383 29.6554 24.3929 29.6857C24.3475 29.7161 24.3121 29.7592 24.2912 29.8097C24.2703 29.8601 24.2648 29.9156 24.2754 29.9692C24.2861 30.0228 24.3124 30.072 24.351 30.1106C24.3896 30.1492 24.4388 30.1755 24.4924 30.1862C24.546 30.1968 24.6015 30.1913 24.6519 30.1704C24.7024 30.1495 24.7455 30.1141 24.7758 30.0687C24.8062 30.0233 24.8224 29.9699 24.8224 29.9153C24.8224 29.8421 24.7933 29.7719 24.7415 29.7201C24.6897 29.6683 24.6195 29.6392 24.5463 29.6392ZM24.4906 20.7073C22.7441 20.7073 21.0368 21.2252 19.5847 22.1955C18.1325 23.1658 17.0007 24.5449 16.3323 26.1585C15.664 27.772 15.4891 29.5475 15.8298 31.2604C16.1706 32.9734 17.0116 34.5468 18.2465 35.7818C19.4815 37.0167 21.0549 37.8578 22.7679 38.1985C24.4808 38.5392 26.2563 38.3643 27.8699 37.696C29.4834 37.0276 30.8625 35.8958 31.8328 34.4436C32.8031 32.9915 33.321 31.2842 33.321 29.5377C33.3212 28.378 33.0929 27.2297 32.6492 26.1583C32.2054 25.0869 31.555 24.1133 30.735 23.2933C29.915 22.4733 28.9415 21.8229 27.87 21.3792C26.7986 20.9354 25.6503 20.7071 24.4906 20.7073ZM26.5337 34.2274L24.4906 31.6365L22.4464 34.2296L21.7185 33.6523L23.7495 31.0744H25.2338L27.2649 33.6523L26.5337 34.2274ZM27.803 30.6422C27.803 30.6701 27.7975 30.6977 27.7868 30.7235C27.776 30.7492 27.7603 30.7726 27.7406 30.7923C27.7208 30.812 27.6973 30.8276 27.6715 30.8381C27.6457 30.8487 27.618 30.8541 27.5902 30.8539H21.3911C21.3349 30.8539 21.281 30.8316 21.2413 30.7919C21.2016 30.7522 21.1793 30.6984 21.1793 30.6422V30.0725C21.1793 30.0163 21.2016 29.9625 21.2413 29.9228C21.281 29.8831 21.3349 29.8608 21.3911 29.8608C21.4379 29.86 21.4832 29.8442 21.5203 29.8157C21.5575 29.7872 21.5845 29.7475 21.5973 29.7025C21.7573 29.0564 22.129 28.4824 22.6532 28.0722C23.1774 27.6619 23.8239 27.439 24.4895 27.439C25.1552 27.439 25.8016 27.6619 26.3258 28.0722C26.85 28.4824 27.2217 29.0564 27.3817 29.7025C27.3934 29.748 27.4199 29.7883 27.4571 29.8169C27.4942 29.8456 27.5399 29.861 27.5869 29.8608C27.6148 29.8605 27.6425 29.8657 27.6684 29.8763C27.6943 29.8868 27.7178 29.9024 27.7376 29.9221C27.7574 29.9418 27.7731 29.9652 27.7838 29.991C27.7944 30.0169 27.7998 30.0446 27.7997 30.0725L27.803 30.6422ZM30.2411 29.6992C29.5768 28.7929 28.8038 27.9715 27.9394 27.2534L27.0434 28.3896C26.8415 28.1527 26.6075 27.9451 26.3481 27.7729L27.2093 26.6815C26.3653 26.052 25.452 25.521 24.4873 25.099C23.5207 25.5211 22.6052 26.0521 21.7589 26.6815L22.6211 27.7729C22.3617 27.9451 22.1277 28.1527 21.9258 28.3896L21.0298 27.2534C20.1663 27.9714 19.3943 28.7928 18.7313 29.6992C18.7118 29.0416 18.8318 28.3873 19.0833 27.7793C19.3348 27.1714 19.7121 26.6235 20.1905 26.1719L19.8074 25.6851L20.5365 25.111L20.9207 25.5978C21.4438 25.2586 22.0298 25.0279 22.6437 24.9194C23.2577 24.8108 23.8872 24.8266 24.495 24.9659C25.1027 24.8266 25.7322 24.8108 26.3462 24.9194C26.9602 25.0279 27.5461 25.2586 28.0693 25.5978L28.4534 25.111L29.1825 25.6851L28.7994 26.1719C29.2746 26.6251 29.6487 27.1736 29.8972 27.7815C30.1456 28.3894 30.2629 29.0429 30.2411 29.6992ZM24.5463 29.0881C24.3823 29.0878 24.222 29.1363 24.0856 29.2272C23.9492 29.3182 23.8429 29.4475 23.7801 29.5989C23.7172 29.7503 23.7007 29.917 23.7327 30.0778C23.7646 30.2386 23.8435 30.3863 23.9594 30.5022C24.0753 30.6181 24.223 30.697 24.3838 30.7289C24.5446 30.7609 24.7113 30.7444 24.8627 30.6815C25.0141 30.6187 25.1434 30.5124 25.2344 30.376C25.3253 30.2396 25.3738 30.0793 25.3735 29.9153C25.3735 29.6959 25.2864 29.4855 25.1312 29.3304C24.9761 29.1752 24.7657 29.0881 24.5463 29.0881ZM24.5463 30.5222C24.4262 30.5222 24.3089 30.4866 24.2091 30.4199C24.1093 30.3532 24.0316 30.2584 23.9856 30.1476C23.9397 30.0367 23.9277 29.9147 23.9511 29.797C23.9745 29.6792 24.0323 29.5711 24.1172 29.4863C24.202 29.4014 24.3102 29.3436 24.4279 29.3202C24.5456 29.2968 24.6676 29.3088 24.7785 29.3547C24.8894 29.4006 24.9841 29.4784 25.0508 29.5782C25.1175 29.678 25.1531 29.7953 25.1531 29.9153C25.1532 29.9951 25.1376 30.074 25.1072 30.1477C25.0767 30.2214 25.032 30.2884 24.9757 30.3447C24.9193 30.4011 24.8523 30.4458 24.7787 30.4763C24.705 30.5067 24.626 30.5223 24.5463 30.5222ZM24.5463 29.6392C24.4917 29.6392 24.4383 29.6554 24.3929 29.6857C24.3475 29.7161 24.3121 29.7592 24.2912 29.8097C24.2703 29.8601 24.2648 29.9156 24.2754 29.9692C24.2861 30.0228 24.3124 30.072 24.351 30.1106C24.3896 30.1492 24.4388 30.1755 24.4924 30.1862C24.546 30.1968 24.6015 30.1913 24.6519 30.1704C24.7024 30.1495 24.7455 30.1141 24.7758 30.0687C24.8062 30.0233 24.8224 29.9699 24.8224 29.9153C24.8224 29.8421 24.7933 29.7719 24.7415 29.7201C24.6897 29.6683 24.6195 29.6392 24.5463 29.6392ZM24.4906 24.9659C24.4262 24.9801 24.3618 24.9975 24.2974 25.015C24.3618 25.0412 24.4273 25.0685 24.4906 25.0968C24.555 25.0674 24.6194 25.0412 24.6827 25.015C24.6194 24.9975 24.5561 24.979 24.4906 24.9659ZM24.5463 29.0881C24.3823 29.0878 24.222 29.1363 24.0856 29.2272C23.9492 29.3182 23.8429 29.4475 23.7801 29.5989C23.7172 29.7503 23.7007 29.917 23.7327 30.0778C23.7646 30.2386 23.8435 30.3863 23.9594 30.5022C24.0753 30.6181 24.223 30.697 24.3838 30.7289C24.5446 30.7609 24.7113 30.7444 24.8627 30.6815C25.0141 30.6187 25.1434 30.5124 25.2344 30.376C25.3253 30.2396 25.3738 30.0793 25.3735 29.9153C25.3735 29.6959 25.2864 29.4855 25.1312 29.3304C24.9761 29.1752 24.7657 29.0881 24.5463 29.0881ZM24.5463 30.5222C24.4262 30.5222 24.3089 30.4866 24.2091 30.4199C24.1093 30.3532 24.0316 30.2584 23.9856 30.1476C23.9397 30.0367 23.9277 29.9147 23.9511 29.797C23.9745 29.6792 24.0323 29.5711 24.1172 29.4863C24.202 29.4014 24.3102 29.3436 24.4279 29.3202C24.5456 29.2968 24.6676 29.3088 24.7785 29.3547C24.8894 29.4006 24.9841 29.4784 25.0508 29.5782C25.1175 29.678 25.1531 29.7953 25.1531 29.9153C25.1532 29.9951 25.1376 30.074 25.1072 30.1477C25.0767 30.2214 25.032 30.2884 24.9757 30.3447C24.9193 30.4011 24.8523 30.4458 24.7787 30.4763C24.705 30.5067 24.626 30.5223 24.5463 30.5222ZM24.5463 29.6392C24.4917 29.6392 24.4383 29.6554 24.3929 29.6857C24.3475 29.7161 24.3121 29.7592 24.2912 29.8097C24.2703 29.8601 24.2648 29.9156 24.2754 29.9692C24.2861 30.0228 24.3124 30.072 24.351 30.1106C24.3896 30.1492 24.4388 30.1755 24.4924 30.1862C24.546 30.1968 24.6015 30.1913 24.6519 30.1704C24.7024 30.1495 24.7455 30.1141 24.7758 30.0687C24.8062 30.0233 24.8224 29.9699 24.8224 29.9153C24.8224 29.8421 24.7933 29.7719 24.7415 29.7201C24.6897 29.6683 24.6195 29.6392 24.5463 29.6392ZM24.4906 24.9659C24.4262 24.9801 24.3618 24.9975 24.2974 25.015C24.3618 25.0412 24.4273 25.0685 24.4906 25.0968C24.555 25.0674 24.6194 25.0412 24.6827 25.015C24.6194 24.9975 24.5561 24.979 24.4906 24.9659ZM24.5463 29.0881C24.3823 29.0878 24.222 29.1363 24.0856 29.2272C23.9492 29.3182 23.8429 29.4475 23.7801 29.5989C23.7172 29.7503 23.7007 29.917 23.7327 30.0778C23.7646 30.2386 23.8435 30.3863 23.9594 30.5022C24.0753 30.6181 24.223 30.697 24.3838 30.7289C24.5446 30.7609 24.7113 30.7444 24.8627 30.6815C25.0141 30.6187 25.1434 30.5124 25.2344 30.376C25.3253 30.2396 25.3738 30.0793 25.3735 29.9153C25.3735 29.6959 25.2864 29.4855 25.1312 29.3304C24.9761 29.1752 24.7657 29.0881 24.5463 29.0881ZM24.5463 30.5222C24.4262 30.5222 24.3089 30.4866 24.2091 30.4199C24.1093 30.3532 24.0316 30.2584 23.9856 30.1476C23.9397 30.0367 23.9277 29.9147 23.9511 29.797C23.9745 29.6792 24.0323 29.5711 24.1172 29.4863C24.202 29.4014 24.3102 29.3436 24.4279 29.3202C24.5456 29.2968 24.6676 29.3088 24.7785 29.3547C24.8894 29.4006 24.9841 29.4784 25.0508 29.5782C25.1175 29.678 25.1531 29.7953 25.1531 29.9153C25.1532 29.9951 25.1376 30.074 25.1072 30.1477C25.0767 30.2214 25.032 30.2884 24.9757 30.3447C24.9193 30.4011 24.8523 30.4458 24.7787 30.4763C24.705 30.5067 24.626 30.5223 24.5463 30.5222ZM24.5463 29.6392C24.4917 29.6392 24.4383 29.6554 24.3929 29.6857C24.3475 29.7161 24.3121 29.7592 24.2912 29.8097C24.2703 29.8601 24.2648 29.9156 24.2754 29.9692C24.2861 30.0228 24.3124 30.072 24.351 30.1106C24.3896 30.1492 24.4388 30.1755 24.4924 30.1862C24.546 30.1968 24.6015 30.1913 24.6519 30.1704C24.7024 30.1495 24.7455 30.1141 24.7758 30.0687C24.8062 30.0233 24.8224 29.9699 24.8224 29.9153C24.8224 29.8421 24.7933 29.7719 24.7415 29.7201C24.6897 29.6683 24.6195 29.6392 24.5463 29.6392ZM24.4906 24.9659C24.4262 24.9801 24.3618 24.9975 24.2974 25.015C24.3618 25.0412 24.4273 25.0685 24.4906 25.0968C24.555 25.0674 24.6194 25.0412 24.6827 25.015C24.6194 24.9975 24.5561 24.979 24.4906 24.9659Z" fill="#08080C" fill-opacity="0.5"/>
<path d="M24.6821 25.0149C24.6188 25.0411 24.5544 25.0673 24.49 25.0968C24.4267 25.0684 24.3613 25.0411 24.2969 25.0149C24.3613 24.9975 24.4257 24.98 24.49 24.9658C24.5555 24.9789 24.6188 24.9975 24.6821 25.0149Z" fill="#08080C" fill-opacity="0.5"/>
<path d="M24.6821 25.0149C24.6188 25.0411 24.5544 25.0673 24.49 25.0968C24.4267 25.0684 24.3613 25.0411 24.2969 25.0149C24.3613 24.9975 24.4257 24.98 24.49 24.9658C24.5555 24.9789 24.6188 24.9975 24.6821 25.0149Z" fill="#08080C" fill-opacity="0.5"/>
</svg>
