<svg width="33" height="32" viewBox="0 0 33 32" fill="none" xmlns="http://www.w3.org/2000/svg">
<path d="M20.4993 30.3333H12.4993C5.25935 30.3333 2.16602 27.24 2.16602 20V12C2.16602 4.75999 5.25935 1.66666 12.4993 1.66666H20.4993C27.7393 1.66666 30.8327 4.75999 30.8327 12V20C30.8327 27.24 27.7393 30.3333 20.4993 30.3333ZM12.4993 3.66666C6.35268 3.66666 4.16602 5.85332 4.16602 12V20C4.16602 26.1467 6.35268 28.3333 12.4993 28.3333H20.4993C26.646 28.3333 28.8327 26.1467 28.8327 20V12C28.8327 5.85332 26.646 3.66666 20.4993 3.66666H12.4993Z" fill="#073131"/>
<path d="M12.5007 14.3333C10.474 14.3333 8.83398 12.6933 8.83398 10.6667C8.83398 8.64 10.474 7 12.5007 7C14.5273 7 16.1673 8.64 16.1673 10.6667C16.1673 12.6933 14.5273 14.3333 12.5007 14.3333ZM12.5007 9C11.5807 9 10.834 9.74667 10.834 10.6667C10.834 11.5867 11.5807 12.3333 12.5007 12.3333C13.4207 12.3333 14.1673 11.5867 14.1673 10.6667C14.1673 9.74667 13.4207 9 12.5007 9Z" fill="#073131"/>
<path d="M4.06035 26.2667C3.74035 26.2667 3.42035 26.1067 3.23368 25.8267C2.92701 25.3733 3.04701 24.7467 3.51368 24.44L10.087 20.0267C11.527 19.0533 13.5137 19.1733 14.8203 20.28L15.2603 20.6667C15.927 21.24 17.0603 21.24 17.7137 20.6667L23.2603 15.9067C24.6737 14.6933 26.9003 14.6933 28.327 15.9067L30.5003 17.7733C30.9137 18.1333 30.967 18.76 30.607 19.1867C30.247 19.6 29.6203 19.6533 29.1937 19.2933L27.0203 17.4267C26.3537 16.8533 25.2203 16.8533 24.5537 17.4267L19.007 22.1867C17.5937 23.4 15.367 23.4 13.9403 22.1867L13.5003 21.8C12.887 21.28 11.8737 21.2267 11.1937 21.6933L4.62035 26.1067C4.44701 26.2133 4.24701 26.2667 4.06035 26.2667Z" fill="#073131"/>
</svg>
