<svg width="66" height="66" viewBox="0 0 66 66" fill="none" xmlns="http://www.w3.org/2000/svg">
<circle cx="33" cy="33" r="33" fill="#F4F7FE"/>
<g clip-path="url(#clip0_128_6933)">
<path d="M46.8327 45H20.166V42.3333H21.4993V22.3333C21.4993 21.9797 21.6398 21.6406 21.8899 21.3905C22.1399 21.1405 22.4791 21 22.8327 21H41.4993C41.853 21 42.1921 21.1405 42.4422 21.3905C42.6922 21.6406 42.8327 21.9797 42.8327 22.3333V29H45.4993V42.3333H46.8327V45ZM40.166 42.3333H42.8327V31.6667H34.8327V42.3333H37.4993V34.3333H40.166V42.3333ZM40.166 29V23.6667H24.166V42.3333H32.166V29H40.166ZM26.8327 31.6667H29.4993V34.3333H26.8327V31.6667ZM26.8327 37H29.4993V39.6667H26.8327V37ZM26.8327 26.3333H29.4993V29H26.8327V26.3333Z" fill="#00C2C2"/>
</g>
<defs>
<clipPath id="clip0_128_6933">
<rect width="32" height="32" fill="white" transform="translate(17.5 17)"/>
</clipPath>
</defs>
</svg>
