<svg width="106" height="105" viewBox="0 0 106 105" fill="none" xmlns="http://www.w3.org/2000/svg">
<circle cx="53" cy="52.5" r="52.5" fill="#12B97D"/>
<path fill-rule="evenodd" clip-rule="evenodd" d="M69.2872 40.6303C69.6908 41.034 69.9175 41.5815 69.9175 42.1523C69.9175 42.7232 69.6908 43.2706 69.2872 43.6743L48.8358 64.1257C48.4321 64.5293 47.8847 64.756 47.3138 64.756C46.743 64.756 46.1955 64.5293 45.7918 64.1257L36.1043 54.4382C35.7122 54.0322 35.4952 53.4884 35.5001 52.924C35.505 52.3595 35.7314 51.8196 36.1305 51.4204C36.5297 51.0213 37.0696 50.7949 37.6341 50.79C38.1985 50.7851 38.7423 51.002 39.1483 51.3942L47.3138 59.5597L66.2432 40.6303C66.6469 40.2267 67.1944 40 67.7652 40C68.3361 40 68.8835 40.2267 69.2872 40.6303Z" fill="white"/>
</svg>
