<svg width="41" height="40" viewBox="0 0 41 40" fill="none" xmlns="http://www.w3.org/2000/svg">
<mask id="mask0_3839_18063" style="mask-type:luminance" maskUnits="userSpaceOnUse" x="5" y="3" width="29" height="34">
<path fill-rule="evenodd" clip-rule="evenodd" d="M5.5 3.35303H33.9203V36.4422H5.5V3.35303Z" fill="white"/>
</mask>
<g mask="url(#mask0_3839_18063)">
<path fill-rule="evenodd" clip-rule="evenodd" d="M13.1218 5.85303C10.3601 5.85303 8.06678 8.08969 8.00178 10.848V28.713C7.94178 31.548 10.1751 33.8814 12.9834 33.943H26.4551C29.2368 33.843 31.4384 31.548 31.4201 28.7214V13.8997L23.6968 5.85303H13.1418H13.1218ZM13.1418 36.443H12.9318C8.74511 36.353 5.41178 32.873 5.50178 28.6864V10.818C5.60011 6.68303 9.01345 3.35303 13.1168 3.35303H13.1468H24.2284C24.5684 3.35303 24.8934 3.49136 25.1301 3.73636L33.5734 12.5314C33.7951 12.763 33.9201 13.0747 33.9201 13.3964V28.713C33.9468 32.8947 30.6868 36.293 26.4984 36.443H13.1418Z" fill="#08080C" fill-opacity="0.5"/>
</g>
<path fill-rule="evenodd" clip-rule="evenodd" d="M32.663 14.974H28.073C25.0213 14.9657 22.543 12.479 22.543 9.43232V4.58398C22.543 3.89398 23.103 3.33398 23.793 3.33398C24.483 3.33398 25.043 3.89398 25.043 4.58398V9.43232C25.043 11.1056 26.403 12.469 28.0763 12.474H32.663C33.353 12.474 33.913 13.034 33.913 13.724C33.913 14.414 33.353 14.974 32.663 14.974Z" fill="#08080C" fill-opacity="0.5"/>
<path fill-rule="evenodd" clip-rule="evenodd" d="M19.0703 27.834C18.3803 27.834 17.8203 27.274 17.8203 26.584V16.5156C17.8203 15.8256 18.3803 15.2656 19.0703 15.2656C19.7603 15.2656 20.3203 15.8256 20.3203 16.5156V26.584C20.3203 27.274 19.7603 27.834 19.0703 27.834Z" fill="#08080C" fill-opacity="0.5"/>
<path fill-rule="evenodd" clip-rule="evenodd" d="M15.1597 21.6914C14.8414 21.6914 14.5214 21.5697 14.2781 21.3264C13.7897 20.8397 13.7864 20.0497 14.2747 19.5597L18.1814 15.633C18.6514 15.1614 19.4847 15.1614 19.9531 15.633L23.8631 19.5597C24.3497 20.0497 24.3481 20.8397 23.8597 21.3264C23.3697 21.813 22.5781 21.813 22.0914 21.323L19.0681 18.2864L16.0447 21.323C15.8014 21.5697 15.4797 21.6914 15.1597 21.6914Z" fill="#08080C" fill-opacity="0.5"/>
</svg>
